<svg width="6460" height="2403" viewBox="0 0 6460 2403" fill="none" xmlns="http://www.w3.org/2000/svg">
<g clip-path="url(#clip0_13_4124)">
<g style="mix-blend-mode:color-burn">
<path d="M9568.34 917.994C8697.87 809.806 8517.34 457.461 7341.32 457.461C5951.87 457.461 5951.87 949.214 4562.28 949.214C3172.69 949.214 3172.98 457.461 1783.58 457.461C394.175 457.461 394.412 949.214 -994.753 949.214C-1846.95 949.214 -2176.62 764.245 -2624.58 621.132V3281.86H9568.34V917.994Z" fill="url(#paint0_linear_13_4124)" fill-opacity="0.1"/>
<path d="M8726.81 1502.06C7337.59 1502.06 7337.59 1010.31 5948.35 1010.31C4559.11 1010.31 4558.89 1502.06 3169.44 1502.06C1779.98 1502.06 1779.98 1010.31 390.577 1010.31C-998.826 1010.31 -998.482 1502.06 -2387.73 1502.06C-2489.41 1502.06 -2583.52 1499.42 -2671.33 1494.49V3834.7H9568.26V1421.71C9347.92 1469.7 9083.1 1502.06 8726.81 1502.06Z" fill="url(#paint1_linear_13_4124)" fill-opacity="0.06"/>
<path d="M9568.34 2146.45C8740.81 2031.25 8544.67 1692.53 7391.68 1692.53C6002.22 1692.53 6002.22 2184.37 4612.74 2184.37C3223.25 2184.37 3223.33 1692.53 1833.93 1692.53C444.526 1692.53 444.764 2184.37 -944.401 2184.37C-1796.6 2184.37 -2126.27 1999.4 -2574.23 1856.28V4516.93H9568.34V2146.45Z" fill="url(#paint2_linear_13_4124)" fill-opacity="0.1"/>
<path d="M9129.59 2737.16C7740.37 2737.16 7740.37 2245.4 6351.12 2245.4C4961.88 2245.4 4961.8 2737.16 3572.18 2737.16C2182.57 2737.16 2182.78 2245.4 793.378 2245.4C-596.026 2245.4 -595.682 2737.16 -1984.95 2737.16C-2261.57 2737.16 -2482.92 2717.61 -2671.33 2686.38V5069.8H9568.26V2718.11C9438.38 2730.23 9293.79 2737.16 9129.59 2737.16Z" fill="url(#paint3_linear_13_4124)" fill-opacity="0.06"/>
</g>
</g>
<defs>
<linearGradient id="paint0_linear_13_4124" x1="3471.85" y1="3281.85" x2="3471.85" y2="457.461" gradientUnits="userSpaceOnUse">
<stop offset="0.63" stop-color="white"/>
<stop offset="0.69" stop-color="#F1F1F1"/>
<stop offset="0.79" stop-color="#CBCBCB"/>
<stop offset="0.93" stop-color="#8F8F8F"/>
<stop offset="1" stop-color="#6E6E6E"/>
</linearGradient>
<linearGradient id="paint1_linear_13_4124" x1="3448.49" y1="3834.7" x2="3448.49" y2="1010.31" gradientUnits="userSpaceOnUse">
<stop offset="0.63" stop-color="white"/>
<stop offset="0.69" stop-color="#F1F1F1"/>
<stop offset="0.79" stop-color="#CBCBCB"/>
<stop offset="0.93" stop-color="#8F8F8F"/>
<stop offset="1" stop-color="#6E6E6E"/>
</linearGradient>
<linearGradient id="paint2_linear_13_4124" x1="3497.02" y1="4516.93" x2="3497.02" y2="1692.53" gradientUnits="userSpaceOnUse">
<stop offset="0.63" stop-color="white"/>
<stop offset="0.69" stop-color="#F1F1F1"/>
<stop offset="0.79" stop-color="#CBCBCB"/>
<stop offset="0.93" stop-color="#8F8F8F"/>
<stop offset="1" stop-color="#6E6E6E"/>
</linearGradient>
<linearGradient id="paint3_linear_13_4124" x1="3448.49" y1="5069.8" x2="3448.49" y2="2245.4" gradientUnits="userSpaceOnUse">
<stop offset="0.63" stop-color="white"/>
<stop offset="0.69" stop-color="#F1F1F1"/>
<stop offset="0.79" stop-color="#CBCBCB"/>
<stop offset="0.93" stop-color="#8F8F8F"/>
<stop offset="1" stop-color="#6E6E6E"/>
</linearGradient>
<clipPath id="clip0_13_4124">
<rect width="6460" height="2403" fill="white"/>
</clipPath>
</defs>
</svg>
